<?xml version="1.0" standalone="no"?>
<!DOCTYPE svg PUBLIC "-//W3C//DTD SVG 20010904//EN"
 "http://www.w3.org/TR/2001/REC-SVG-20010904/DTD/svg10.dtd">
<svg version="1.0" xmlns="http://www.w3.org/2000/svg"
 width="503.000000pt" height="511.000000pt" viewBox="0 0 503.000000 511.000000"
 preserveAspectRatio="xMidYMid meet">

<g transform="translate(0.000000,511.000000) scale(0.100000,-0.100000)"
fill="#000000" stroke="none">
<path d="M2483 3335 c-18 -8 -42 -29 -53 -47 -19 -32 -20 -49 -20 -693 0 -637
1 -661 20 -692 40 -66 -3 -63 867 -63 773 0 789 0 821 20 57 35 62 62 62 317
l0 228 250 -250 250 -250 0 690 0 690 -250 -250 -250 -250 0 230 c0 260 -6
285 -70 317 -32 17 -92 18 -815 18 -647 -1 -786 -3 -812 -15z m1199 -661 l3
-546 28 -23 c15 -13 27 -27 27 -30 0 -3 -40 -5 -90 -5 l-90 0 0 35 0 36 -37
-29 c-21 -17 -55 -35 -77 -42 -55 -18 -180 -8 -238 17 -274 123 -274 549 1
685 39 19 62 23 146 23 88 0 106 -3 153 -26 l52 -26 0 189 0 189 -30 17 c-16
9 -30 20 -30 23 0 5 153 57 172 58 4 1 9 -245 10 -545z m-981 373 c43 -33 50
-87 14 -122 -43 -44 -112 -29 -134 28 -26 68 63 138 120 94z m39 -577 l0 -341
25 -25 c14 -14 25 -27 25 -29 0 -3 -49 -5 -110 -5 -67 0 -110 4 -110 10 0 6 4
10 10 10 5 0 16 13 25 30 23 44 22 581 -1 604 -8 9 -22 16 -30 16 -8 0 -14 4
-14 9 0 8 138 57 168 60 9 1 12 -73 12 -339z"/>
<path d="M3259 2720 c-51 -27 -93 -79 -119 -147 -18 -48 -21 -73 -18 -143 9
-181 114 -310 253 -310 74 0 134 38 169 107 23 46 23 339 0 386 -56 110 -186
159 -285 107z"/>
<path d="M1430 3202 c0 -4 13 -13 29 -20 36 -16 31 -4 265 -632 102 -272 187
-488 190 -480 3 8 93 255 200 548 106 293 202 542 211 552 10 11 26 20 37 20
10 0 18 5 18 10 0 6 -37 10 -90 10 -84 0 -117 -11 -70 -23 13 -3 20 -14 20
-29 0 -13 -67 -208 -150 -433 -82 -225 -150 -412 -150 -415 -1 -14 -23 38 -74
175 -30 83 -96 260 -146 394 -49 135 -90 258 -90 274 0 20 6 30 20 34 51 13 9
23 -100 23 -66 0 -120 -3 -120 -8z"/>
</g>
</svg>
